<?xml version="1.0" encoding="utf-8"?>
<!-- Generator: Adobe Illustrator 19.0.0, SVG Export Plug-In . SVG Version: 6.00 Build 0)  -->
<svg version="1.1" id="add" xmlns="http://www.w3.org/2000/svg" xmlns:xlink="http://www.w3.org/1999/xlink" x="0px" y="0px"
	 viewBox="0 0 100 100" style="enable-background:new 0 0 100 100;" xml:space="preserve">
	  
<style type="text/css">
	.st0{
		opacity:0.4;
	}
	.st1{
		fill:#939393;
	}
	
	
	
	
	
</style>

<g id="XMLID_4_">
	<g id="XMLID_2_">
		<path id="XMLID_10_" class="st0" d="M50,0C22.4,0,0,22.4,0,50s22.4,50,50,50s50-22.4,50-50S77.6,0,50,0z M50,89.6
			c-21.8,0-39.6-17.7-39.6-39.6S28.2,10.4,50,10.4S89.6,28.2,89.6,50S71.8,89.6,50,89.6z"/>
	</g>
	<g id="XMLID_3_">
		<path id="XMLID_5_" class="st1" d="M46.1,32.5c0-3,1.3-4.6,4.6-4.6c3.3,0,4.6,1.7,4.6,4.6v13.8H69c2.4,0,4.6,1.3,4.6,4.6
			c0,3.3-2.2,4.6-4.6,4.6H55.4v13.6c0,3-1.3,4.6-4.6,4.6c-3.3,0-4.6-1.7-4.6-4.6V55.6H32.4c-2.4,0-4.6-1.3-4.6-4.6
			c0-3.3,2.2-4.6,4.6-4.6h13.6V32.5z"/>
	</g>
</g>
</svg>
